<svg xmlns="http://www.w3.org/2000/svg" width="66" height="63" viewBox="0 0 66 63">
  <metadata><?xpacket begin="﻿" id="W5M0MpCehiHzreSzNTczkc9d"?>
<x:xmpmeta xmlns:x="adobe:ns:meta/" x:xmptk="Adobe XMP Core 5.6-c138 79.159824, 2016/09/14-01:09:01        ">
   <rdf:RDF xmlns:rdf="http://www.w3.org/1999/02/22-rdf-syntax-ns#">
      <rdf:Description rdf:about=""/>
   </rdf:RDF>
</x:xmpmeta>
                                                                                                    
                                                                                                    
                                                                                                    
                                                                                                    
                                                                                                    
                                                                                                    
                                                                                                    
                                                                                                    
                                                                                                    
                                                                                                    
                                                                                                    
                                                                                                    
                                                                                                    
                                                                                                    
                                                                                                    
                                                                                                    
                                                                                                    
                                                                                                    
                                                                                                    
                                                                                                    
                           
<?xpacket end="w"?></metadata>
<defs>
    <style>
      .cls-1 {
        fill: #73ad32;
        stroke: #73ad32;
        stroke-linejoin: round;
        stroke-width: 1px;
        fill-rule: evenodd;
      }
    </style>
  </defs>
  <path id="Forma_1" data-name="Forma 1" class="cls-1" d="M1312.06,7973a4,4,0,1,0,4,4A4,4,0,0,0,1312.06,7973Zm0,6a2,2,0,1,1,2-2A2,2,0,0,1,1312.06,7979Zm13.98-6a4,4,0,1,0,4,4A4,4,0,0,0,1326.04,7973Zm0,6a2,2,0,1,1,2-2A2,2,0,0,1,1326.04,7979Zm13.98-6a4,4,0,1,0,4,4A4,4,0,0,0,1340.02,7973Zm0,6a2,2,0,1,1,2-2A2,2,0,0,1,1340.02,7979Zm-13.98-29c-16.52,0-29.95,12.11-29.95,27a24.942,24.942,0,0,0,4.76,14.6c-0.59,6.54-2.18,11.39-4.47,13.69a1,1,0,0,0,.7,1.71,0.615,0.615,0,0,0,.14-0.01c0.41-.06,9.8-1.41,16.6-5.34a32.449,32.449,0,0,0,12.22,2.35c16.52,0,29.96-12.11,29.96-27S1342.56,7950,1326.04,7950Zm0,52a30.648,30.648,0,0,1-10.06-1.68c4.07-2.55,4.08-2.73,4.08-3.32a1,1,0,0,0-1.83-.57c-0.55.44-2.9,1.95-5.01,3.25h0c-4.46,2.7-10.46,4.2-13.79,4.88,2.2-3.67,3.09-8.99,3.44-13.16a1.039,1.039,0,0,0-.19-0.68,22.993,22.993,0,0,1-4.6-13.72c0-13.78,12.55-25,27.96-25s27.96,11.22,27.96,25S1341.46,8002,1326.04,8002Z" transform="translate(-1293 -7947)"/>
</svg>
