<svg xmlns="http://www.w3.org/2000/svg" width="27" height="30" viewBox="0 0 27 30">
  <metadata><?xpacket begin="﻿" id="W5M0MpCehiHzreSzNTczkc9d"?>
<x:xmpmeta xmlns:x="adobe:ns:meta/" x:xmptk="Adobe XMP Core 5.6-c138 79.159824, 2016/09/14-01:09:01        ">
   <rdf:RDF xmlns:rdf="http://www.w3.org/1999/02/22-rdf-syntax-ns#">
      <rdf:Description rdf:about=""/>
   </rdf:RDF>
</x:xmpmeta>
                                                                                                    
                                                                                                    
                                                                                                    
                                                                                                    
                                                                                                    
                                                                                                    
                                                                                                    
                                                                                                    
                                                                                                    
                                                                                                    
                                                                                                    
                                                                                                    
                                                                                                    
                                                                                                    
                                                                                                    
                                                                                                    
                                                                                                    
                                                                                                    
                                                                                                    
                                                                                                    
                           
<?xpacket end="w"?></metadata>
<defs>
    <style>
      .cls-1 {
        fill: #73ad32;
        fill-rule: evenodd;
      }
    </style>
  </defs>
  <path id="Forma_1" data-name="Forma 1" class="cls-1" d="M795.536,11754a4.2,4.2,0,0,0-6.072,0,4.212,4.212,0,0,0,0,6,4.808,4.808,0,0,0,1.09.8v7.3a0.641,0.641,0,0,0,.172.4l0.866,0.9c0.09,0,.207.1,0.334,0.1l0.864,0.1h0.082a0.44,0.44,0,0,0,.345-0.1l1.605-1.1a0.6,0.6,0,0,0,.242-0.5v-0.6a0.78,0.78,0,0,0-.235-0.5l-0.438-.3,0.5-.5a0.47,0.47,0,0,0,.176-0.4v-0.7a0.647,0.647,0,0,0-.169-0.4l-0.6-.6v-0.2l0.449-.2a0.623,0.623,0,0,0,.318-0.6v-1.2a0.579,0.579,0,0,0-.3-0.5l-0.474-.3h0a3.623,3.623,0,0,0,1.242-.9A4.21,4.21,0,0,0,795.536,11754Zm-2.02,5.9a0.579,0.579,0,0,0-.3.3,0.362,0.362,0,0,0-.1.3v0.8a0.58,0.58,0,0,0,.3.5l0.474,0.3v0.5l-0.449.2a0.576,0.576,0,0,0-.319.5v0.8a0.925,0.925,0,0,0,.169.5l0.6,0.6v0.2l-0.593.5a0.9,0.9,0,0,0-.176.5v0.3a0.611,0.611,0,0,0,.234.5l0.529,0.4-1.165.8h-0.436l-0.555-.6v-7.4a0.584,0.584,0,0,0-.372-0.5,4.013,4.013,0,0,1-1.062-.7,3.108,3.108,0,0,1,0-4.4,3.154,3.154,0,0,1,4.412,0,3.108,3.108,0,0,1,0,4.4A2.821,2.821,0,0,1,793.516,11759.9Zm-1.016-4.9a0.888,0.888,0,0,1,.88.9,0.884,0.884,0,0,1-1.76,0A0.888,0.888,0,0,1,792.5,11755Zm13.06-2.8a53.7,53.7,0,0,1-12.774-5.1,0.583,0.583,0,0,0-.572,0,53.517,53.517,0,0,1-12.774,5.1,0.625,0.625,0,0,0-.44.6v6.4a18.059,18.059,0,0,0,5.968,13.6c2.92,2.7,6.307,4.2,7.532,4.2s4.611-1.5,7.532-4.2a18.059,18.059,0,0,0,5.968-13.6v-6.4A0.625,0.625,0,0,0,805.56,11752.2Zm-0.734,7a16.7,16.7,0,0,1-5.592,12.7,18.429,18.429,0,0,1-4.223,3,3.953,3.953,0,0,1-5.022,0,18.429,18.429,0,0,1-4.223-3,16.7,16.7,0,0,1-5.592-12.7v-6a54.71,54.71,0,0,0,12.326-4.9,54.8,54.8,0,0,0,12.326,4.9v6Zm-1.3-5.4a59.05,59.05,0,0,1-10.746-4.4,0.545,0.545,0,0,0-.552,0,59.314,59.314,0,0,1-10.746,4.4,0.6,0.6,0,0,0-.424.5v4.9a16.055,16.055,0,0,0,5.073,11.9,21.613,21.613,0,0,0,3.954,2.9,10.723,10.723,0,0,0,2.312.9h0.213a10.735,10.735,0,0,0,2.313-.9,21.648,21.648,0,0,0,3.954-2.9,16.05,16.05,0,0,0,5.072-11.9v-4.9A0.6,0.6,0,0,0,803.522,11753.8Zm-0.75,5.4a14.735,14.735,0,0,1-4.712,11,15.875,15.875,0,0,1-3.7,2.7,11.82,11.82,0,0,1-1.86.9,11.869,11.869,0,0,1-1.861-.9,15.891,15.891,0,0,1-3.7-2.7,14.735,14.735,0,0,1-4.712-11v-4.4a62.744,62.744,0,0,0,10.273-4.2,62.435,62.435,0,0,0,10.271,4.2v4.4h0Zm-11.976,11.5a18.139,18.139,0,0,1-2.024-1.6,0.6,0.6,0,0,0-.782.9,11.783,11.783,0,0,0,2.179,1.6,0.385,0.385,0,0,0,.313.1,0.794,0.794,0,0,0,.5-0.2A0.555,0.555,0,0,0,790.8,11770.7Zm-3.166-2.7h-0.012a0.652,0.652,0,0,0-.826-0.1,0.678,0.678,0,0,0-.044.9h0.012a0.717,0.717,0,0,0,.434.2,0.652,0.652,0,0,0,.392-0.2A0.553,0.553,0,0,0,787.63,11768Z" transform="translate(-779 -11747)"/>
</svg>
