<svg xmlns="http://www.w3.org/2000/svg" width="27.62" height="32" viewBox="0 0 27.62 32">
  <metadata><?xpacket begin="﻿" id="W5M0MpCehiHzreSzNTczkc9d"?>
<x:xmpmeta xmlns:x="adobe:ns:meta/" x:xmptk="Adobe XMP Core 5.6-c138 79.159824, 2016/09/14-01:09:01        ">
   <rdf:RDF xmlns:rdf="http://www.w3.org/1999/02/22-rdf-syntax-ns#">
      <rdf:Description rdf:about=""/>
   </rdf:RDF>
</x:xmpmeta>
                                                                                                    
                                                                                                    
                                                                                                    
                                                                                                    
                                                                                                    
                                                                                                    
                                                                                                    
                                                                                                    
                                                                                                    
                                                                                                    
                                                                                                    
                                                                                                    
                                                                                                    
                                                                                                    
                                                                                                    
                                                                                                    
                                                                                                    
                                                                                                    
                                                                                                    
                                                                                                    
                           
<?xpacket end="w"?></metadata>
<defs>
    <style>
      .cls-1 {
        fill: #73ad32;
        fill-rule: evenodd;
      }
    </style>
  </defs>
  <path id="Forma_1" data-name="Forma 1" class="cls-1" d="M1641.63,11763v-9.3a0.611,0.611,0,0,0-.41-0.6l-12.84-4.1h-0.76l-12.84,4.1a0.611,0.611,0,0,0-.41.6v9.2c-0.01.2-.37,13.6,13.32,18.1h0.62C1642,11776.5,1641.64,11763.1,1641.63,11763Zm-13.61,16.8h-0.04a17.355,17.355,0,0,1-12.43-16.8v-8.9l12.43-4h0.04l12.43,4v8.9C1640.45,11763.1,1640.79,11775.6,1628.02,11779.8Zm9.91-24.5-9.64-3.1a0.362,0.362,0,0,0-.5,0l-9.64,3.1a0.616,0.616,0,0,0-.4.6v7.2c0,0.1.49,10.5,10.07,14.1h0.43c9.59-3.6,10.08-14,10.08-14.1v-7.2A0.616,0.616,0,0,0,1637.93,11755.3Zm-9.89,20.7c-8.64-3.4-9.1-12.8-9.1-12.9v-6.8l9.1-3,9.1,3v6.8C1637.14,11763.2,1636.68,11772.6,1628.04,11776Zm6.8-15.3a0.57,0.57,0,0,0-.84.1l-6.87,8.1-4.44-4.6a0.564,0.564,0,0,0-.84,0,0.55,0.55,0,0,0-.02.8l4.9,5a0.668,0.668,0,0,0,.43.2h0.02a0.668,0.668,0,0,0,.43-0.2l7.31-8.6A0.556,0.556,0,0,0,1634.84,11760.7Z" transform="translate(-1614.38 -11749)"/>
</svg>
