<svg xmlns="http://www.w3.org/2000/svg" width="69.875" height="56" viewBox="0 0 69.875 56">
  <metadata><?xpacket begin="﻿" id="W5M0MpCehiHzreSzNTczkc9d"?>
<x:xmpmeta xmlns:x="adobe:ns:meta/" x:xmptk="Adobe XMP Core 5.6-c138 79.159824, 2016/09/14-01:09:01        ">
   <rdf:RDF xmlns:rdf="http://www.w3.org/1999/02/22-rdf-syntax-ns#">
      <rdf:Description rdf:about=""/>
   </rdf:RDF>
</x:xmpmeta>
                                                                                                    
                                                                                                    
                                                                                                    
                                                                                                    
                                                                                                    
                                                                                                    
                                                                                                    
                                                                                                    
                                                                                                    
                                                                                                    
                                                                                                    
                                                                                                    
                                                                                                    
                                                                                                    
                                                                                                    
                                                                                                    
                                                                                                    
                                                                                                    
                                                                                                    
                                                                                                    
                           
<?xpacket end="w"?></metadata>
<defs>
    <style>
      .cls-1 {
        fill: #73ad32;
        fill-rule: evenodd;
      }
    </style>
  </defs>
  <path class="cls-1" d="M745.618,7968.47l-13.861-8.75a1.225,1.225,0,0,0-1.281,0l-13.86,8.75a1.217,1.217,0,0,0-.583,1.05,52.371,52.371,0,0,0,14.093,33.25l0.117,0.11a1.124,1.124,0,0,0,1.63,0l0.117-.11a53.118,53.118,0,0,0,14.209-33.25A1.215,1.215,0,0,0,745.618,7968.47Zm-14.56,31.96a50.652,50.652,0,0,1-12.695-30.33l12.695-8.05,12.7,8.05A49.957,49.957,0,0,1,731.058,8000.43Zm30.983-35.19a1.152,1.152,0,0,0,.219-0.55l1.606-4.07a1.126,1.126,0,0,0,.266-0.67l1.752-4.43a1.137,1.137,0,0,0-.117-1.05,1.41,1.41,0,0,0-.932-0.47h-17.47c-0.35,0-.7.23-1.049,0.23l-4.963,6.01-9.6-6.01a1.271,1.271,0,0,0-1.281,0l-9.876,6.19-4.916-5.95a1.063,1.063,0,0,0-.932-0.47H697.281a1.613,1.613,0,0,0-.932.58,0.871,0.871,0,0,0-.116,1.05l1.769,4.46a1.213,1.213,0,0,0,.175.44l1.7,4.28a1.075,1.075,0,0,0,.135.34l1.743,4.39a1.186,1.186,0,0,0,.087.22l3.008,7.57a14.262,14.262,0,0,0,1.98,3.39,13.605,13.605,0,0,0,7.45,4.51,56.716,56.716,0,0,0,12.467,20.69l3.494,3.73a1.124,1.124,0,0,0,1.63,0l3.5-3.73a56.66,56.66,0,0,0,12.508-20.81,12.922,12.922,0,0,0,7.408-4.51,11.579,11.579,0,0,0,1.981-3.27l2.957-7.48a1.192,1.192,0,0,0,.161-0.41ZM708.7,7979.08a9.143,9.143,0,0,1-1.631-2.68l-2.43-6.07h4.294a1.165,1.165,0,0,0,0-2.33H703.7l-0.934-2.33H706.6a1.17,1.17,0,0,0,0-2.34h-4.767L700.9,7961h4.537a1.165,1.165,0,1,0,0-2.33h-5.471l-0.935-2.34H714.17l4.41,5.35-6.74,4.22a1.038,1.038,0,0,0-.582.93c0,0.29,0,.57.007,0.86,0,0.11,0,.23.006,0.34,0,0.15.007,0.3,0.011,0.44,0.044,1.61.152,3.2,0.333,4.78,0.018,0.16.038,0.33,0.058,0.5,0,0.03.007,0.06,0.011,0.09a57.04,57.04,0,0,0,1.721,8.57A9.558,9.558,0,0,1,708.7,7979.08ZM733.5,8004.4l-2.562,2.8-2.562-2.8a55.2,55.2,0,0,1-13.706-26.54,58.781,58.781,0,0,1-1.079-9.94c0-.09,0-0.18,0-0.27l7.335-4.67a1.9,1.9,0,0,0,.336-0.26l9.8-6.15,17.237,10.96A54.272,54.272,0,0,1,733.5,8004.4Zm21.664-27.88a12.89,12.89,0,0,1-1.63,2.68,12.059,12.059,0,0,1-4.873,3.38c0.245-.86.47-1.73,0.675-2.6a55.466,55.466,0,0,0,1.5-11.54c0-.13.007-0.27,0.009-0.4s0-.24.007-0.36c0-.28.007-0.56,0.007-0.85a1.425,1.425,0,0,0-.466-0.93l-0.013-.01c-0.033-.03-0.067-0.07-0.1-0.11l-6.755-4.2,4.426-5.25h15.141l-0.915,2.34h-5.491a1.165,1.165,0,0,0,0,2.33h4.575l-0.916,2.33h-4.823a1.17,1.17,0,0,0,0,2.34h3.908L758.51,7968h-5.322a1.165,1.165,0,1,0,0,2.33H757.6Z" transform="translate(-696.094 -7954)"/>
</svg>
