<svg xmlns="http://www.w3.org/2000/svg" width="31" height="30" viewBox="0 0 31 30">
  <metadata><?xpacket begin="﻿" id="W5M0MpCehiHzreSzNTczkc9d"?>
<x:xmpmeta xmlns:x="adobe:ns:meta/" x:xmptk="Adobe XMP Core 5.6-c138 79.159824, 2016/09/14-01:09:01        ">
   <rdf:RDF xmlns:rdf="http://www.w3.org/1999/02/22-rdf-syntax-ns#">
      <rdf:Description rdf:about=""/>
   </rdf:RDF>
</x:xmpmeta>
                                                                                                    
                                                                                                    
                                                                                                    
                                                                                                    
                                                                                                    
                                                                                                    
                                                                                                    
                                                                                                    
                                                                                                    
                                                                                                    
                                                                                                    
                                                                                                    
                                                                                                    
                                                                                                    
                                                                                                    
                                                                                                    
                                                                                                    
                                                                                                    
                                                                                                    
                                                                                                    
                           
<?xpacket end="w"?></metadata>
<defs>
    <style>
      .cls-1 {
        fill: #73ad32;
        fill-rule: evenodd;
      }
    </style>
  </defs>
  <path id="Forma_1" data-name="Forma 1" class="cls-1" d="M1244.36,11767.4l-3.32-1.2a0.621,0.621,0,0,0-.69.2,7.511,7.511,0,0,1-11.7,0,0.621,0.621,0,0,0-.69-0.2l-3.32,1.2a8.5,8.5,0,0,0-5.64,8v0.9a0.667,0.667,0,0,0,.65.7h29.7a0.667,0.667,0,0,0,.65-0.7v-0.9A8.5,8.5,0,0,0,1244.36,11767.4Zm4.35,8.3h-28.42v-0.3a7.161,7.161,0,0,1,4.77-6.8l2.93-1a8.757,8.757,0,0,0,13.02,0l2.93,1a7.161,7.161,0,0,1,4.77,6.8v0.3Zm-6.46-20.7v-0.2a7.75,7.75,0,1,0-15.5,0v0.2a3.453,3.453,0,0,0-1.29,3.1c0,1.8.79,3.2,1.86,3.2,1.17,4,4,6.6,7.18,6.6s6.01-2.6,7.18-6.6c1.07,0,1.86-1.4,1.86-3.2A3.453,3.453,0,0,0,1242.25,11755Zm-0.69,5a0.6,0.6,0,0,0-.58,0,0.467,0.467,0,0,0-.38.4c-0.91,3.7-3.36,6.2-6.1,6.2s-5.19-2.5-6.1-6.2a0.66,0.66,0,0,0-.4-0.4,0.235,0.235,0,0,0-.23-0.1c-0.13,0-.26.1-0.37,0.1a2.19,2.19,0,0,1-.65-1.9,2.682,2.682,0,0,1,.62-2h0.02a0.493,0.493,0,0,0,.52-0.1,0.88,0.88,0,0,0,.18-0.6l-0.01-.1a4.21,4.21,0,0,1-.04-0.5,6.46,6.46,0,1,1,12.92,0,4.21,4.21,0,0,1-.04.5l-0.01.1a0.544,0.544,0,0,0,.18.5,0.4,0.4,0,0,0,.52.2h0.02a2.682,2.682,0,0,1,.62,2C1242.25,11759.3,1241.78,11760,1241.56,11760Zm-7.06-7.8a2.5,2.5,0,0,0-2.58,2.6,0.647,0.647,0,1,0,1.29,0,1.29,1.29,0,1,1,2.58,0,2.1,2.1,0,0,1-.98,2.1,2.758,2.758,0,0,0-1.59,2.6,0.618,0.618,0,0,0,.63.5h0.08a0.6,0.6,0,0,0,.56-0.7,1.593,1.593,0,0,1,.99-1.3,3.257,3.257,0,0,0,1.6-3.2A2.5,2.5,0,0,0,1234.5,11752.2Zm-0.65,9.1a0.7,0.7,0,1,1-.64.7A0.667,0.667,0,0,1,1233.85,11761.3Z" transform="translate(-1219 -11747)"/>
</svg>
