<svg xmlns="http://www.w3.org/2000/svg" width="29.31" height="32" viewBox="0 0 29.31 32">
  <metadata><?xpacket begin="﻿" id="W5M0MpCehiHzreSzNTczkc9d"?>
<x:xmpmeta xmlns:x="adobe:ns:meta/" x:xmptk="Adobe XMP Core 5.6-c138 79.159824, 2016/09/14-01:09:01        ">
   <rdf:RDF xmlns:rdf="http://www.w3.org/1999/02/22-rdf-syntax-ns#">
      <rdf:Description rdf:about=""/>
   </rdf:RDF>
</x:xmpmeta>
                                                                                                    
                                                                                                    
                                                                                                    
                                                                                                    
                                                                                                    
                                                                                                    
                                                                                                    
                                                                                                    
                                                                                                    
                                                                                                    
                                                                                                    
                                                                                                    
                                                                                                    
                                                                                                    
                                                                                                    
                                                                                                    
                                                                                                    
                                                                                                    
                                                                                                    
                                                                                                    
                           
<?xpacket end="w"?></metadata>
<defs>
    <style>
      .cls-1 {
        fill: #73ad32;
        fill-rule: evenodd;
      }
    </style>
  </defs>
  <path id="Forma_1" data-name="Forma 1" class="cls-1" d="M1416.67,35.534a13.052,13.052,0,0,0,3.04-7.791,7.715,7.715,0,1,0-15.43,0,13.115,13.115,0,0,0,3.04,7.791C1396,39.351,1397.19,49.858,1397.68,52h28.63A13.938,13.938,0,0,0,1416.67,35.534Zm-4.67-14.5a6.681,6.681,0,0,1,6.08,3.944c-2.57,1.758-5.17-.226-5.17-0.226a5.412,5.412,0,0,0-5.83.245l-1.56,1.1A6.712,6.712,0,0,1,1412,21.032Zm-6.69,6.71c0-.082.01-0.164,0.01-0.245l2.35-1.657a4.386,4.386,0,0,1,4.72-.2,5.627,5.627,0,0,0,6.05.333,6.831,6.831,0,0,1,.24,1.764c0,3.667-2.99,9.291-6.68,9.291S1405.31,31.407,1405.31,27.742Zm20.15,23.225h-26.92a12.893,12.893,0,0,1,4.84-12.3,14.811,14.811,0,0,0,1.28,4.163,4.141,4.141,0,0,0-1.68,4.858l0.85,2.431,1.94-.687-0.34-.976-0.97.341-0.52-1.462a3.091,3.091,0,1,1,5.83-2.054l0.51,1.463-0.98.339,0.34,0.977,1.94-.687-0.85-2.438a4.106,4.106,0,0,0-5.14-2.557,13.474,13.474,0,0,1-1.27-4.391,13.069,13.069,0,0,1,3.82-1.625,5.26,5.26,0,0,0,7.71,0,12.738,12.738,0,0,1,4.37,2.01,13.209,13.209,0,0,1-1.51,3.886,1.909,1.909,0,0,0-.55-0.089,2.065,2.065,0,1,0,1.45.6,14.594,14.594,0,0,0,1.5-3.7A13,13,0,0,1,1425.46,50.967Zm-6.26-6.708a1.04,1.04,0,0,1-1.03,1.034A1.033,1.033,0,1,1,1419.2,44.259Z" transform="translate(-1397.38 -20)"/>
</svg>
