<svg xmlns="http://www.w3.org/2000/svg" width="19.62" height="36" viewBox="0 0 19.62 36">
  <metadata><?xpacket begin="﻿" id="W5M0MpCehiHzreSzNTczkc9d"?>
<x:xmpmeta xmlns:x="adobe:ns:meta/" x:xmptk="Adobe XMP Core 5.6-c138 79.159824, 2016/09/14-01:09:01        ">
   <rdf:RDF xmlns:rdf="http://www.w3.org/1999/02/22-rdf-syntax-ns#">
      <rdf:Description rdf:about=""/>
   </rdf:RDF>
</x:xmpmeta>
                                                                                                    
                                                                                                    
                                                                                                    
                                                                                                    
                                                                                                    
                                                                                                    
                                                                                                    
                                                                                                    
                                                                                                    
                                                                                                    
                                                                                                    
                                                                                                    
                                                                                                    
                                                                                                    
                                                                                                    
                                                                                                    
                                                                                                    
                                                                                                    
                                                                                                    
                                                                                                    
                           
<?xpacket end="w"?></metadata>
<defs>
    <style>
      .cls-1 {
        fill: #73ad32;
        fill-rule: evenodd;
      }
    </style>
  </defs>
  <path id="Forma_1" data-name="Forma 1" class="cls-1" d="M1680.01,32.843V21.436a1.724,1.724,0,0,0-.19-3.436h-7.64a1.724,1.724,0,0,0-.19,3.436v9.205a0.575,0.575,0,0,0,1.15,0V21.447h3.24a0.575,0.575,0,0,0,0-1.149h-4.2a0.574,0.574,0,0,1,0-1.148h7.64a0.574,0.574,0,0,1,0,1.148h-1.15a0.575,0.575,0,0,0,0,1.149h0.19V32.939a0.617,0.617,0,0,0,.03.19l5.57,16.142a2.758,2.758,0,0,1-.22,2.546,2.73,2.73,0,0,1-2.32,1.035h-11.84a2.73,2.73,0,0,1-2.32-1.035,2.758,2.758,0,0,1-.22-2.546l5.57-16.142a0.577,0.577,0,0,0-1.09-.378l-5.56,16.143A3.639,3.639,0,0,0,1670.08,54h11.84a3.639,3.639,0,0,0,3.62-5.105Zm-8.89,11.872a0.561,0.561,0,0,0-.51-0.1,0.567,0.567,0,0,0-.38.363l-1.61,4.664a1.671,1.671,0,0,0,.07,1.5,1.641,1.641,0,0,0,1.39.553h11.84a1.641,1.641,0,0,0,1.39-.553,1.671,1.671,0,0,0,.07-1.5l-1.61-4.665a0.567,0.567,0,0,0-.38-0.363,0.561,0.561,0,0,0-.51.1,1.859,1.859,0,0,1-1.33.428,1.883,1.883,0,0,1-1.4-.626,3.006,3.006,0,0,0-4.3,0,1.883,1.883,0,0,1-1.4.626A1.859,1.859,0,0,1,1671.12,44.715Zm3.48,0.673a1.878,1.878,0,0,1,2.8,0,3.006,3.006,0,0,0,2.15.906,3.284,3.284,0,0,0,1.37-.259l1.37,3.987a1.113,1.113,0,0,1,.08.458,1.133,1.133,0,0,1-.45.074h-11.84a1.133,1.133,0,0,1-.45-0.074,1.113,1.113,0,0,1,.08-0.458l1.37-3.987a3.284,3.284,0,0,0,1.37.259A3.006,3.006,0,0,0,1674.6,45.387Z" transform="translate(-1666.19 -18)"/>
</svg>
