<svg xmlns="http://www.w3.org/2000/svg" width="33.219" height="30.75" viewBox="0 0 33.219 30.75">
  <metadata><?xpacket begin="﻿" id="W5M0MpCehiHzreSzNTczkc9d"?>
<x:xmpmeta xmlns:x="adobe:ns:meta/" x:xmptk="Adobe XMP Core 5.6-c138 79.159824, 2016/09/14-01:09:01        ">
   <rdf:RDF xmlns:rdf="http://www.w3.org/1999/02/22-rdf-syntax-ns#">
      <rdf:Description rdf:about=""/>
   </rdf:RDF>
</x:xmpmeta>
                                                                                                    
                                                                                                    
                                                                                                    
                                                                                                    
                                                                                                    
                                                                                                    
                                                                                                    
                                                                                                    
                                                                                                    
                                                                                                    
                                                                                                    
                                                                                                    
                                                                                                    
                                                                                                    
                                                                                                    
                                                                                                    
                                                                                                    
                                                                                                    
                                                                                                    
                                                                                                    
                           
<?xpacket end="w"?></metadata>
<defs>
    <style>
      .cls-1 {
        fill: #73ad32;
        fill-rule: evenodd;
      }
    </style>
  </defs>
  <path id="Forma_1" data-name="Forma 1" class="cls-1" d="M729.215,38.079c1.785-1.753,1.233-5.3-1.858-5.3l-8.132,0c0.308-1.7.755-4.519,0.738-4.784a17.13,17.13,0,0,0-1.869-5.712,3.479,3.479,0,0,0-3.3-.969c-1.949.411-2.148,1.639-2.14,1.977,0,0,.084,3.359.093,4.256-0.933,2.021-4.147,7.333-5.121,7.742a1.5,1.5,0,0,0-.772-0.214h-8.275A1.564,1.564,0,0,0,697,36.633V50.651A1.485,1.485,0,0,0,698.481,52h7.229a1.476,1.476,0,0,0,1.484-1.465V50.069a1.073,1.073,0,0,1,.5.074,4.225,4.225,0,0,0,2.284.841h13.771c5.149,0,4.6-4.513,4.128-5.129a3.469,3.469,0,0,0,.672-3.888A3.451,3.451,0,0,0,729.215,38.079ZM705.393,50.532h-6.915V36.542h6.915v13.99Zm21.42-12.573-0.084.345c2.372,0.667,1.108,3.366-.593,3.542l-0.084.346c2.275,0.571,1.19,3.351-.591,3.54l-0.085.346c1.858,0.3,1.408,3.431-1.406,3.431l-14.008.006c-0.989,0-1.89-1.113-2.618-1.113h-0.635V37.633a22.486,22.486,0,0,0,2.3-1.566c1.022-.861,5.2-7.531,5.2-8.366s-0.091-4.446-.091-4.446,0.819-1.043,2.65-.283a15.72,15.72,0,0,1,1.7,5.125s-0.695,4.682-1.067,6.15h9.712C729.5,34.248,729.048,37.613,726.813,37.959Z" transform="translate(-697 -21.25)"/>
</svg>
