<svg xmlns="http://www.w3.org/2000/svg" width="19" height="23" viewBox="0 0 19 23">
  <metadata><?xpacket begin="﻿" id="W5M0MpCehiHzreSzNTczkc9d"?>
<x:xmpmeta xmlns:x="adobe:ns:meta/" x:xmptk="Adobe XMP Core 5.6-c138 79.159824, 2016/09/14-01:09:01        ">
   <rdf:RDF xmlns:rdf="http://www.w3.org/1999/02/22-rdf-syntax-ns#">
      <rdf:Description rdf:about=""/>
   </rdf:RDF>
</x:xmpmeta>
                                                                                                    
                                                                                                    
                                                                                                    
                                                                                                    
                                                                                                    
                                                                                                    
                                                                                                    
                                                                                                    
                                                                                                    
                                                                                                    
                                                                                                    
                                                                                                    
                                                                                                    
                                                                                                    
                                                                                                    
                                                                                                    
                                                                                                    
                                                                                                    
                                                                                                    
                                                                                                    
                           
<?xpacket end="w"?></metadata>
<defs>
    <style>
      .cls-1 {
        fill: #4197d7;
        fill-rule: evenodd;
      }
    </style>
  </defs>
  <path class="cls-1" d="M1654.42,266.394h0.15a4.231,4.231,0,0,0,3.26-1.453c1.77-2.069,1.48-5.613,1.45-5.95a4.9,4.9,0,0,0-2.24-4.319,5.065,5.065,0,0,0-2.49-.673h-0.08a5.062,5.062,0,0,0-2.49.653,4.9,4.9,0,0,0-2.27,4.339c-0.03.337-.32,3.881,1.46,5.95A4.2,4.2,0,0,0,1654.42,266.394Zm-3.47-7.284v-0.038c0.16-3.415,2.51-3.781,3.52-3.781h0.05c1.25,0.027,3.37.55,3.51,3.781a0.051,0.051,0,0,0,.01.038c0,0.033.33,3.272-1.14,4.977a3,3,0,0,1-2.38,1.02h-0.05a2.988,2.988,0,0,1-2.38-1.02C1650.63,262.391,1650.94,259.137,1650.95,259.11Zm13.04,13.162v-0.137c-0.03-.943-0.09-3.146-2.1-3.852-0.01,0-.03-0.008-0.04-0.014a13.178,13.178,0,0,1-3.84-1.8,0.613,0.613,0,0,0-.87.158,0.65,0.65,0,0,0,.15.892,14.288,14.288,0,0,0,4.22,1.988c1.08,0.4,1.2,1.582,1.23,2.668a0.463,0.463,0,0,0,.01.119,9.913,9.913,0,0,1-.1,1.471,17.965,17.965,0,0,1-16.3,0,8.749,8.749,0,0,1-.1-1.471c0-.039.01-0.076,0.01-0.121,0.03-1.084.15-2.269,1.23-2.666a14.333,14.333,0,0,0,4.22-1.989,0.649,0.649,0,0,0,.15-0.891,0.612,0.612,0,0,0-.87-0.159,13.068,13.068,0,0,1-3.84,1.8l-0.04.013c-2.01.711-2.07,2.914-2.1,3.855v0.132a7.208,7.208,0,0,0,.24,2.16,0.527,0.527,0,0,0,.24.3,19,19,0,0,0,18.04,0,0.686,0.686,0,0,0,.24-0.3A7.717,7.717,0,0,0,1663.99,272.272Z" transform="translate(-1645 -254)"/>
</svg>
