<svg xmlns="http://www.w3.org/2000/svg" width="26" height="32" viewBox="0 0 26 32">
  <metadata><?xpacket begin="﻿" id="W5M0MpCehiHzreSzNTczkc9d"?>
<x:xmpmeta xmlns:x="adobe:ns:meta/" x:xmptk="Adobe XMP Core 5.6-c138 79.159824, 2016/09/14-01:09:01        ">
   <rdf:RDF xmlns:rdf="http://www.w3.org/1999/02/22-rdf-syntax-ns#">
      <rdf:Description rdf:about=""/>
   </rdf:RDF>
</x:xmpmeta>
                                                                                                    
                                                                                                    
                                                                                                    
                                                                                                    
                                                                                                    
                                                                                                    
                                                                                                    
                                                                                                    
                                                                                                    
                                                                                                    
                                                                                                    
                                                                                                    
                                                                                                    
                                                                                                    
                                                                                                    
                                                                                                    
                                                                                                    
                                                                                                    
                                                                                                    
                                                                                                    
                           
<?xpacket end="w"?></metadata>
<defs>
    <style>
      .cls-1 {
        fill: #73ad32;
        fill-rule: evenodd;
      }
    </style>
  </defs>
  <path class="cls-1" d="M1012.52,27.3a10.948,10.948,0,0,0,2.12,6.106c1.5,2.095,3.41,3.248,5.36,3.248s3.86-1.153,5.36-3.248a10.948,10.948,0,0,0,2.12-6.106A7.482,7.482,0,0,0,1012.52,27.3Zm7.48-6.034a6.113,6.113,0,0,1,6.18,6.034,9.822,9.822,0,0,1-1.88,5.376,4.766,4.766,0,0,1-8.6,0,9.822,9.822,0,0,1-1.88-5.376A6.113,6.113,0,0,1,1020,21.269Zm5.58,13.973a0.668,0.668,0,0,0-.74.124,6.5,6.5,0,0,1-9.68,0,0.667,0.667,0,0,0-.74-0.125,12.97,12.97,0,0,0-5.36,4.6,12.431,12.431,0,0,0-2.06,6.866v0.01a0.65,0.65,0,0,0,.21.47,19.4,19.4,0,0,0,25.58,0,0.65,0.65,0,0,0,.21-0.47v-0.01a12.431,12.431,0,0,0-2.06-6.866A12.964,12.964,0,0,0,1025.58,35.241ZM1020,50.732a17.963,17.963,0,0,1-11.7-4.3,11.144,11.144,0,0,1,1.86-5.907,11.57,11.57,0,0,1,4.42-3.946,7.737,7.737,0,0,0,10.84,0,11.57,11.57,0,0,1,4.42,3.946,11.144,11.144,0,0,1,1.86,5.907A17.963,17.963,0,0,1,1020,50.732Zm-6.97-19.253" transform="translate(-1007 -20)"/>
</svg>
