<svg xmlns="http://www.w3.org/2000/svg" width="20.75" height="23.812" viewBox="0 0 20.75 23.812">
  <metadata><?xpacket begin="﻿" id="W5M0MpCehiHzreSzNTczkc9d"?>
<x:xmpmeta xmlns:x="adobe:ns:meta/" x:xmptk="Adobe XMP Core 5.6-c138 79.159824, 2016/09/14-01:09:01        ">
   <rdf:RDF xmlns:rdf="http://www.w3.org/1999/02/22-rdf-syntax-ns#">
      <rdf:Description rdf:about=""/>
   </rdf:RDF>
</x:xmpmeta>
                                                                                                    
                                                                                                    
                                                                                                    
                                                                                                    
                                                                                                    
                                                                                                    
                                                                                                    
                                                                                                    
                                                                                                    
                                                                                                    
                                                                                                    
                                                                                                    
                                                                                                    
                                                                                                    
                                                                                                    
                                                                                                    
                                                                                                    
                                                                                                    
                                                                                                    
                                                                                                    
                           
<?xpacket end="w"?></metadata>
<defs>
    <style>
      .cls-1 {
        fill: #4197d7;
        fill-rule: evenodd;
      }
    </style>
  </defs>
  <path class="cls-1" d="M1665.95,350.075a2.345,2.345,0,0,0-1.59-.981,2.449,2.449,0,0,0-1.81.561l-1.77,1.378c-0.12-.087-0.25-0.17-0.36-0.249-0.17-.111-0.33-0.217-0.47-0.327a17.149,17.149,0,0,1-3.65-4.241,9.939,9.939,0,0,1-1.09-2.288c0.45-.322.88-0.666,1.3-1,0.15-.12.31-0.25,0.47-0.371a2.3,2.3,0,0,0,.43-3.449l-1.2-1.528c-0.14-.173-0.28-0.351-0.41-0.53-0.26-.347-0.54-0.7-0.83-1.043a2.351,2.351,0,0,0-1.58-.937,2.5,2.5,0,0,0-1.8.524s0,0-.01.009l-1.91,1.5a3.652,3.652,0,0,0-1.37,2.182,8.794,8.794,0,0,0,.18,3.779,21.766,21.766,0,0,0,3.05,6.828,23.625,23.625,0,0,0,7.09,7.076,12.312,12.312,0,0,0,4.24,1.834c0.11,0.016.22,0.036,0.32,0.047a3.809,3.809,0,0,0,3.04-.883,0.069,0.069,0,0,1,.02-0.023,11.081,11.081,0,0,1,.99-0.794c0.24-.176.48-0.365,0.73-0.563a2.506,2.506,0,0,0,.96-1.632,2.367,2.367,0,0,0-.56-1.805Zm1.15,5.47h0c-0.22.183-.45,0.35-0.69,0.532a12.769,12.769,0,0,0-1.08.877,2.438,2.438,0,0,1-1.98.563c-0.08-.009-0.16-0.018-0.23-0.032a10.9,10.9,0,0,1-3.76-1.644,22.271,22.271,0,0,1-6.68-6.664,20.579,20.579,0,0,1-2.87-6.418,7.136,7.136,0,0,1-.17-3.19,2.273,2.273,0,0,1,.87-1.4l1.92-1.49a1.147,1.147,0,0,1,.8-0.263,1.071,1.071,0,0,1,.69.44,0.145,0.145,0,0,1,.01.018c0.27,0.319.53,0.649,0.79,1,0.14,0.179.28,0.357,0.42,0.542l1.2,1.527a0.961,0.961,0,0,1-.19,1.544c-0.17.129-.32,0.255-0.49,0.379-0.47.374-.92,0.726-1.4,1.061-0.01.008-.02,0.011-0.03,0.02a1.024,1.024,0,0,0-.4,1.1c0,0.017.01,0.032,0.01,0.047a11.011,11.011,0,0,0,1.29,2.823l0.01,0a18.292,18.292,0,0,0,3.94,4.573,6.438,6.438,0,0,0,.58.41c0.17,0.112.33,0.218,0.46,0.324a0.728,0.728,0,0,0,.06.042,1.023,1.023,0,0,0,1.28-.065l1.92-1.5a1.168,1.168,0,0,1,.8-0.284,1.063,1.063,0,0,1,.68.454s0,0,.01.008l2.42,3.087A0.992,0.992,0,0,1,1667.1,355.545Z" transform="translate(-1648.19 -335.063)"/>
</svg>
